<svg xmlns="http://www.w3.org/2000/svg" viewBox="0 0 90.59 31.25"><defs><style>.cls-1{fill:#81e6d9;}</style></defs><g id="Layer_2" data-name="Layer 2"><g id="Layer_1-2" data-name="Layer 1"><path class="cls-1" d="M58.31,30.69h6.23V9.41h.07l6.61,21.28h4.84L82.41,9.41h.07V30.69h8.11V.56H79L74.67,15H74.6L70.09.56H58.31Zm-17.09-9.8H46a4.68,4.68,0,0,1-4.92,4.38c-2.51,0-5-1.55-5-9.64S38.56,6,41.07,6c3,0,4.55,2.59,4.88,5.54l7.77-1.12C52.22,3.74,47.49,0,41.07,0,32.62,0,27.52,6,27.52,15.63s5.1,15.62,13,15.62c2.89,0,6.57-1,8.29-3.75l2.41,3.15h2.33v-15H41.22ZM23.73.56H17.5V18.62c0,4.62-1.73,6.17-4.88,6.17-2,0-4.51-1.11-4.51-5.26V.56H0V20.29c0,4.86,2.25,11,11.64,11s12.09-5.94,12.09-11.36Z"/></g></g></svg>